# xmcd CD database file
#
# Track frame offsets:
#	150
#	23180
#	44109
#	62872
#	86258
#	103537
#	118750
#	152229
#	165793
#	186978
#	218600
#
# Disc length: 3734 seconds
#
# Revision: 1
# Processed by: cddbd v1.5.1PL2 Copyright (c) Steve Scherf et al.
# Submitted via: CDex 1.51
#
DISCID=8e0e940b
DTITLE=Various Artist - Tomorow's Zydeco
DYEAR=2002
DGENRE=Zydeco
TTITLE0=Buckwheat Zydeco - Put It In The Pocket
TTITLE1=Buckwheat Zydeco - Hard Chargin'
TTITLE2=Sean Ardoin and ZydeKool - Pullin'
TTITLE3=Sean Ardoin and ZydeKool - Mama
TTITLE4=Sean Ardoin and ZydeKool - New School/Old School
TTITLE5=Sean Ardoin and ZydeKool - I Feel Alright
TTITLE6=Lil' Brian and The Zydeco Travelers - Funky Nation
TTITLE7=Lil' Brian and The Zydeco Travelers - Thigh Drivin'
TTITLE8=Lil' Brian and The Zydeco Travelers - Jackin' This Song
TTITLE9=Buckwheat Zydeco - Trouble (Live)
TTITLE10=Buckwheat Zydeco - Hey Joe (Live)
EXTD=YEAR: 2002
EXTT0=
EXTT1=
EXTT2=
EXTT3=
EXTT4=
EXTT5=
EXTT6=
EXTT7=
EXTT8=
EXTT9=
EXTT10=
PLAYORDER=
